<mxfile host="app.diagrams.net" agent="Mozilla/5.0 (Windows NT 10.0; Win64; x64) AppleWebKit/537.36 (KHTML, like Gecko) Chrome/137.0.0.0 Safari/537.36 Edg/137.0.0.0" version="27.1.6">
  <diagram name="PÃ¡gina-1" id="Wgr62jBP6LMftDCd0yix">
    <mxGraphModel dx="442" dy="744" grid="1" gridSize="10" guides="1" tooltips="1" connect="1" arrows="1" fold="1" page="1" pageScale="1" pageWidth="827" pageHeight="1169" math="0" shadow="0">
      <root>
        <mxCell id="XIpjfVOdXixs17Zb3epc-0" />
        <mxCell id="XIpjfVOdXixs17Zb3epc-1" parent="XIpjfVOdXixs17Zb3epc-0" />
        <mxCell id="74wJ3-qpqIITfBojfMLV-0" value="" style="curved=1;endArrow=classic;html=1;rounded=0;" edge="1" parent="XIpjfVOdXixs17Zb3epc-1" source="74wJ3-qpqIITfBojfMLV-23">
          <mxGeometry width="50" height="50" relative="1" as="geometry">
            <mxPoint x="570" y="630" as="sourcePoint" />
            <mxPoint x="440" y="760" as="targetPoint" />
            <Array as="points" />
          </mxGeometry>
        </mxCell>
        <mxCell id="74wJ3-qpqIITfBojfMLV-1" value="" style="curved=1;endArrow=classic;html=1;rounded=0;exitX=1;exitY=0.667;exitDx=0;exitDy=0;exitPerimeter=0;" edge="1" parent="XIpjfVOdXixs17Zb3epc-1" source="74wJ3-qpqIITfBojfMLV-23">
          <mxGeometry width="50" height="50" relative="1" as="geometry">
            <mxPoint x="730" y="590" as="sourcePoint" />
            <mxPoint x="930" y="760" as="targetPoint" />
            <Array as="points" />
          </mxGeometry>
        </mxCell>
        <mxCell id="74wJ3-qpqIITfBojfMLV-2" value="" style="curved=1;endArrow=classic;html=1;rounded=0;" edge="1" parent="XIpjfVOdXixs17Zb3epc-1" source="74wJ3-qpqIITfBojfMLV-23">
          <mxGeometry width="50" height="50" relative="1" as="geometry">
            <mxPoint x="630" y="630" as="sourcePoint" />
            <mxPoint x="690" y="760" as="targetPoint" />
            <Array as="points" />
          </mxGeometry>
        </mxCell>
        <mxCell id="74wJ3-qpqIITfBojfMLV-3" value="" style="rounded=0;whiteSpace=wrap;html=1;" vertex="1" parent="XIpjfVOdXixs17Zb3epc-1">
          <mxGeometry x="310" y="770" width="140" height="100" as="geometry" />
        </mxCell>
        <mxCell id="74wJ3-qpqIITfBojfMLV-4" style="edgeStyle=orthogonalEdgeStyle;rounded=0;orthogonalLoop=1;jettySize=auto;html=1;exitX=0.5;exitY=1;exitDx=0;exitDy=0;" edge="1" parent="XIpjfVOdXixs17Zb3epc-1" source="74wJ3-qpqIITfBojfMLV-6">
          <mxGeometry relative="1" as="geometry">
            <mxPoint x="659.7575757575758" y="860.2424242424242" as="targetPoint" />
          </mxGeometry>
        </mxCell>
        <mxCell id="74wJ3-qpqIITfBojfMLV-5" style="edgeStyle=orthogonalEdgeStyle;rounded=0;orthogonalLoop=1;jettySize=auto;html=1;exitX=1;exitY=1;exitDx=0;exitDy=0;" edge="1" parent="XIpjfVOdXixs17Zb3epc-1" source="74wJ3-qpqIITfBojfMLV-6">
          <mxGeometry relative="1" as="geometry">
            <mxPoint x="730.0606060606061" y="860.2424242424242" as="targetPoint" />
          </mxGeometry>
        </mxCell>
        <mxCell id="74wJ3-qpqIITfBojfMLV-6" value="" style="rounded=0;whiteSpace=wrap;html=1;" vertex="1" parent="XIpjfVOdXixs17Zb3epc-1">
          <mxGeometry x="590" y="770" width="140" height="100" as="geometry" />
        </mxCell>
        <mxCell id="74wJ3-qpqIITfBojfMLV-7" value="" style="rounded=0;whiteSpace=wrap;html=1;" vertex="1" parent="XIpjfVOdXixs17Zb3epc-1">
          <mxGeometry x="860" y="770" width="140" height="100" as="geometry" />
        </mxCell>
        <mxCell id="74wJ3-qpqIITfBojfMLV-8" value="Reprodutor de Musica" style="text;html=1;align=center;verticalAlign=middle;whiteSpace=wrap;rounded=0;" vertex="1" parent="XIpjfVOdXixs17Zb3epc-1">
          <mxGeometry x="310" y="770" width="140" height="30" as="geometry" />
        </mxCell>
        <mxCell id="74wJ3-qpqIITfBojfMLV-9" value="AparelhoTelefonico" style="text;html=1;align=center;verticalAlign=middle;whiteSpace=wrap;rounded=0;" vertex="1" parent="XIpjfVOdXixs17Zb3epc-1">
          <mxGeometry x="623.5" y="770" width="60" height="30" as="geometry" />
        </mxCell>
        <mxCell id="74wJ3-qpqIITfBojfMLV-10" value="NavegadorInternet" style="text;html=1;align=center;verticalAlign=middle;whiteSpace=wrap;rounded=0;" vertex="1" parent="XIpjfVOdXixs17Zb3epc-1">
          <mxGeometry x="900" y="770" width="60" height="30" as="geometry" />
        </mxCell>
        <mxCell id="74wJ3-qpqIITfBojfMLV-11" value="" style="shape=link;html=1;rounded=0;width=0.9090909090909083;entryX=1;entryY=1;entryDx=0;entryDy=0;" edge="1" parent="XIpjfVOdXixs17Zb3epc-1" target="74wJ3-qpqIITfBojfMLV-8">
          <mxGeometry width="100" relative="1" as="geometry">
            <mxPoint x="310" y="800" as="sourcePoint" />
            <mxPoint x="410" y="800" as="targetPoint" />
          </mxGeometry>
        </mxCell>
        <mxCell id="74wJ3-qpqIITfBojfMLV-12" value="" style="shape=link;html=1;rounded=0;width=0.9090909090909083;entryX=1;entryY=1;entryDx=0;entryDy=0;" edge="1" parent="XIpjfVOdXixs17Zb3epc-1">
          <mxGeometry width="100" relative="1" as="geometry">
            <mxPoint x="590" y="800" as="sourcePoint" />
            <mxPoint x="730" y="800" as="targetPoint" />
            <Array as="points">
              <mxPoint x="660" y="800" />
            </Array>
          </mxGeometry>
        </mxCell>
        <mxCell id="74wJ3-qpqIITfBojfMLV-13" value="" style="shape=link;html=1;rounded=0;width=0.9090909090909083;entryX=1;entryY=1;entryDx=0;entryDy=0;" edge="1" parent="XIpjfVOdXixs17Zb3epc-1">
          <mxGeometry width="100" relative="1" as="geometry">
            <mxPoint x="860" y="800" as="sourcePoint" />
            <mxPoint x="1000" y="800" as="targetPoint" />
          </mxGeometry>
        </mxCell>
        <mxCell id="74wJ3-qpqIITfBojfMLV-14" value="+tocar()" style="text;html=1;align=center;verticalAlign=middle;whiteSpace=wrap;rounded=0;" vertex="1" parent="XIpjfVOdXixs17Zb3epc-1">
          <mxGeometry x="310" y="800" width="60" height="30" as="geometry" />
        </mxCell>
        <mxCell id="74wJ3-qpqIITfBojfMLV-15" value="+pausar()" style="text;html=1;align=center;verticalAlign=middle;whiteSpace=wrap;rounded=0;" vertex="1" parent="XIpjfVOdXixs17Zb3epc-1">
          <mxGeometry x="320" y="820" width="60" height="30" as="geometry" />
        </mxCell>
        <mxCell id="74wJ3-qpqIITfBojfMLV-16" value="+ligar(String numero)" style="text;html=1;align=center;verticalAlign=middle;whiteSpace=wrap;rounded=0;" vertex="1" parent="XIpjfVOdXixs17Zb3epc-1">
          <mxGeometry x="585" y="800" width="130" height="30" as="geometry" />
        </mxCell>
        <mxCell id="74wJ3-qpqIITfBojfMLV-17" value="+atender()" style="text;html=1;align=center;verticalAlign=middle;whiteSpace=wrap;rounded=0;" vertex="1" parent="XIpjfVOdXixs17Zb3epc-1">
          <mxGeometry x="590" y="820" width="60" height="30" as="geometry" />
        </mxCell>
        <mxCell id="74wJ3-qpqIITfBojfMLV-18" value="+selecionarMusica()" style="text;html=1;align=center;verticalAlign=middle;whiteSpace=wrap;rounded=0;" vertex="1" parent="XIpjfVOdXixs17Zb3epc-1">
          <mxGeometry x="340" y="840" width="60" height="30" as="geometry" />
        </mxCell>
        <mxCell id="74wJ3-qpqIITfBojfMLV-19" value="+iniciarCorreioVoz()" style="text;html=1;align=center;verticalAlign=middle;whiteSpace=wrap;rounded=0;" vertex="1" parent="XIpjfVOdXixs17Zb3epc-1">
          <mxGeometry x="620" y="840" width="60" height="30" as="geometry" />
        </mxCell>
        <mxCell id="74wJ3-qpqIITfBojfMLV-20" value="+exibirPagina(String url)" style="text;html=1;align=center;verticalAlign=middle;whiteSpace=wrap;rounded=0;" vertex="1" parent="XIpjfVOdXixs17Zb3epc-1">
          <mxGeometry x="860" y="800" width="140" height="30" as="geometry" />
        </mxCell>
        <mxCell id="74wJ3-qpqIITfBojfMLV-21" value="+adicionarNovaAba()" style="text;html=1;align=center;verticalAlign=middle;whiteSpace=wrap;rounded=0;" vertex="1" parent="XIpjfVOdXixs17Zb3epc-1">
          <mxGeometry x="890" y="820" width="60" height="30" as="geometry" />
        </mxCell>
        <mxCell id="74wJ3-qpqIITfBojfMLV-22" value="+atualizarPagina()" style="text;html=1;align=center;verticalAlign=middle;whiteSpace=wrap;rounded=0;" vertex="1" parent="XIpjfVOdXixs17Zb3epc-1">
          <mxGeometry x="880" y="840" width="60" height="30" as="geometry" />
        </mxCell>
        <mxCell id="74wJ3-qpqIITfBojfMLV-23" value="" style="rounded=0;whiteSpace=wrap;html=1;" vertex="1" parent="XIpjfVOdXixs17Zb3epc-1">
          <mxGeometry x="570" y="530" width="120" height="90" as="geometry" />
        </mxCell>
        <mxCell id="74wJ3-qpqIITfBojfMLV-24" value="Iphone" style="text;html=1;align=center;verticalAlign=middle;whiteSpace=wrap;rounded=0;" vertex="1" parent="XIpjfVOdXixs17Zb3epc-1">
          <mxGeometry x="600" y="530" width="60" height="30" as="geometry" />
        </mxCell>
        <mxCell id="74wJ3-qpqIITfBojfMLV-25" value="Interface" style="text;html=1;align=center;verticalAlign=middle;whiteSpace=wrap;rounded=0;" vertex="1" parent="XIpjfVOdXixs17Zb3epc-1">
          <mxGeometry x="350" y="750" width="60" height="30" as="geometry" />
        </mxCell>
        <mxCell id="74wJ3-qpqIITfBojfMLV-26" value="Interface" style="text;html=1;align=center;verticalAlign=middle;whiteSpace=wrap;rounded=0;" vertex="1" parent="XIpjfVOdXixs17Zb3epc-1">
          <mxGeometry x="630" y="750" width="60" height="30" as="geometry" />
        </mxCell>
        <mxCell id="74wJ3-qpqIITfBojfMLV-27" value="Interface" style="text;html=1;align=center;verticalAlign=middle;whiteSpace=wrap;rounded=0;" vertex="1" parent="XIpjfVOdXixs17Zb3epc-1">
          <mxGeometry x="900" y="750" width="60" height="30" as="geometry" />
        </mxCell>
      </root>
    </mxGraphModel>
  </diagram>
</mxfile>
